# xmcd
#
# Track frame offsets: 
#        150
#        11727
#        23250
#        40430
#        55462
#        77222
#        92750
#        110205
#        123922
#        144940
#        161797
#
# Disc length: 2541 seconds
#
# Revision: 1
# Processed by: cddbd v1.5.2PL0 Copyright (c) Steve Scherf et al.
# Submitted via: ExactAudioCopy v0.99pb5
#
DISCID=8e09eb0b
DTITLE=Chicken Shack - O.K. Ken?
DYEAR=1968
DGENRE=Blues
TTITLE0=Baby's Got Me Crying
TTITLE1=The Right Way Is My Way
TTITLE2=Get Like You Used To Be
TTITLE3=Pony And Trap
TTITLE4=Tell Me
TTITLE5=A Woman Is The Blues
TTITLE6=I Wanna See My Baby
TTITLE7=Remington Ride
TTITLE8=Fishing In Your River
TTITLE9=Mean Old World
TTITLE10=Sweet Sixteen
EXTD=
EXTT0=
EXTT1=
EXTT2=
EXTT3=
EXTT4=
EXTT5=
EXTT6=
EXTT7=
EXTT8=
EXTT9=
EXTT10=
PLAYORDER=
